# xmcd
#
# Track frame offsets:
#	750
#	16040
#	31562
#	48899
#	65010
#	84279
#	103453
#	121209
#	136172
#	152556
#	172001
#	188128
#	204038
#	222024
#	237046
#	255395
#	273198
#	288475
#	307476
#	329565
#
# Disc length: 4597
#
# Revision: 2
# Processed by: cddbd v1.5.1PL0 Copyright (c) Steve Scherf et al.
# Submitted via: audiograbber 1.83.01
# Normalized: r1:DSETVAR1
#
DISCID=0e11eb14
DTITLE=Various Artist - Hip Hop Summer 2003 [CD 1)
DYEAR=2003
DGENRE=Hip Hop
TTITLE0=Trooper Da Don - Ride Or Die (I Need You) feat. Vanessa
TTITLE1=DJ Tomekk - Ganxtaville feat. Kurupt
TTITLE2=Kool Savas - Der Beste Tag Meines Lebens
TTITLE3=Massive Töne - Cruisen
TTITLE4=Curse - Hand Hoch
TTITLE5=Die Fantastischen Vier - Tag Am Meer
TTITLE6=Das Bo - Türlich, Türlich (Sicher, Dicker)
TTITLE7=Big Brovaz - Nu Flow
TTITLE8=Ms. Dynamite - Dy-Na-Mi-Tee
TTITLE9=Seed - Waterpumpee feat Anthony B.
TTITLE10=Patrice - Up In My Room
TTITLE11=Beenie Man - Street Life
TTITLE12=Gentleman - Dem Gone
TTITLE13=Panjabi MC - Mundian To Bach Ke
TTITLE14=M.O.P. - Cold As Ice
TTITLE15=Naughty By Nature - Hip Hop Hooray
TTITLE16=A Tribe Called Quest - Find A Way
TTITLE17=Wu-Tang Clan - C.R.E.A.M.
TTITLE18=The Pharcyde - Runnin'
TTITLE19=Run DMC - Peter Piper
EXTD=
EXTT0=
EXTT1=
EXTT2=
EXTT3=
EXTT4=
EXTT5=
EXTT6=
EXTT7=
EXTT8=
EXTT9=
EXTT10=
EXTT11=
EXTT12=
EXTT13=
EXTT14=
EXTT15=
EXTT16=
EXTT17=
EXTT18=
EXTT19=
PLAYORDER=
